<svg width="42" height="42" viewBox="0 0 42 42" fill="none" xmlns="http://www.w3.org/2000/svg">
<rect width="42" height="42" rx="21" fill="#2C75B3"/>
<g clip-path="url(#clip0_1_2)">
<path d="M20.3726 4.9873C20.4194 4.98695 20.4662 4.98659 20.5144 4.98623C20.6132 4.98564 20.7121 4.98523 20.8109 4.98499C20.9584 4.98439 21.1058 4.98245 21.2532 4.98047C23.0975 4.96761 24.9123 5.55279 26.375 6.6875C26.4329 6.73165 26.4909 6.7758 26.5505 6.82129C27.7887 7.79778 28.8004 9.0104 29 10.625C29.0061 10.7888 29.0098 10.951 29.0101 11.1148C29.0104 11.1617 29.0107 11.2087 29.011 11.257C29.0119 11.4112 29.0123 11.5655 29.0127 11.7197C29.0129 11.773 29.013 11.8263 29.0132 11.8812C29.0142 12.1638 29.0147 12.4464 29.015 12.729C29.0154 13.0175 29.0169 13.3059 29.0186 13.5944C29.0198 13.8191 29.0201 14.0438 29.0202 14.2685C29.0204 14.3746 29.0209 14.4807 29.0217 14.5868C29.0391 16.9629 28.2745 19.002 26.6094 20.7227C25.4355 21.875 25.4355 21.875 25 21.875C25 22.6588 25 23.4425 25 24.25C25.2475 24.2913 25.495 24.3325 25.75 24.375C25.9187 24.4091 26.0872 24.4445 26.2553 24.4818C26.3001 24.4916 26.345 24.5015 26.3912 24.5117C26.5365 24.5438 26.6818 24.5762 26.8271 24.6086C26.9302 24.6315 27.0332 24.6544 27.1362 24.6773C27.3512 24.7251 27.5661 24.7731 27.7811 24.8212C28.0535 24.8821 28.3261 24.9425 28.5988 25.0027C28.8114 25.0498 29.0239 25.0972 29.2365 25.1448C29.3368 25.1672 29.4371 25.1894 29.5375 25.2115C31.4479 25.6327 33.116 26.312 34.2325 28.0163C34.7656 28.8702 35.0725 29.8356 35.3887 30.7844C35.4356 30.924 35.4825 31.0637 35.5295 31.2033C35.627 31.4937 35.724 31.7844 35.8206 32.0752C35.9441 32.4463 36.0692 32.8169 36.1947 33.1874C36.2918 33.4747 36.3878 33.7623 36.4836 34.0501C36.5293 34.1868 36.5753 34.3235 36.6217 34.4601C37.1705 36.0775 37.1705 36.0775 36.8945 36.6602C36.7007 36.8645 36.5385 36.9849 36.2561 37.0271C35.9635 37.0275 35.7402 37.0226 35.4688 36.9063C35.1236 36.5611 34.9927 36.075 34.845 35.6199C34.8248 35.5589 34.8047 35.4978 34.7839 35.4349C34.7404 35.3032 34.6971 35.1713 34.654 35.0394C34.5855 34.8301 34.5164 34.6209 34.4473 34.4118C34.2508 33.8173 34.0552 33.2226 33.86 32.6278C33.7402 32.2632 33.6199 31.8987 33.4992 31.5343C33.4536 31.3962 33.4082 31.2579 33.363 31.1196C32.8977 29.6946 32.3966 28.4979 31.0295 27.7271C30.3928 27.4277 29.6773 27.2943 29 27.125C29 27.8056 29 28.4863 29 29.1875C29.3094 29.2803 29.3094 29.2803 29.625 29.375C30.1414 29.5946 30.5426 29.9189 30.9375 30.3125C30.9774 30.3509 31.0173 30.3894 31.0583 30.429C31.8447 31.2468 32.0296 32.3225 32.0271 33.4138C32.0274 33.4986 32.0277 33.5835 32.0281 33.6683C32.0286 33.8443 32.0285 34.0203 32.0279 34.1963C32.0272 34.4211 32.0284 34.6458 32.0302 34.8706C32.0314 35.045 32.0314 35.2194 32.031 35.3939C32.031 35.5168 32.0321 35.6397 32.0331 35.7626C32.0278 36.4498 32.0278 36.4498 31.75 36.75C31.4021 37.0888 30.9875 37.0371 30.5312 37.0312C30.4556 37.0322 30.3799 37.0332 30.302 37.0342C29.6167 37.0312 29.6167 37.0312 29.3125 36.75C29.0909 36.4978 29.0435 36.2771 29.0491 35.9412C29.0789 35.6556 29.2016 35.4812 29.4102 35.293C29.6463 35.1295 29.776 35.1188 30.0625 35.125C30.0597 34.7904 30.0553 34.4559 30.0495 34.1214C30.0478 34.0078 30.0464 33.8943 30.0456 33.7808C30.0385 32.9301 30.0125 32.2054 29.3928 31.5591C28.9583 31.1892 28.4672 31.04 27.9038 31.0493C27.3389 31.0977 26.8976 31.3265 26.5173 31.7429C26.1508 32.2013 26.0349 32.6449 26.0305 33.2207C26.0294 33.2755 26.0283 33.3303 26.0271 33.3867C26.0238 33.5599 26.0216 33.7331 26.0195 33.9063C26.0175 34.0244 26.0153 34.1426 26.0131 34.2607C26.0078 34.5488 26.0036 34.8369 26 35.125C26.0578 35.1227 26.1155 35.1205 26.175 35.1182C26.4355 35.1271 26.5486 35.2139 26.75 35.375C26.9852 35.642 27.0086 35.9024 27 36.25C26.9326 36.5685 26.7688 36.7583 26.5 36.9375C26.2235 37.0758 25.8505 37.0172 25.5469 37.0195C25.4701 37.0213 25.3933 37.0232 25.3142 37.025C24.5968 37.0301 24.5968 37.0301 24.3125 36.75C23.9717 36.3862 24.0272 35.9637 24.0315 35.4897C24.0315 35.4024 24.0314 35.315 24.0312 35.2277C24.0311 35.0448 24.0319 34.8619 24.0333 34.6789C24.0351 34.4465 24.0349 34.2142 24.0341 33.9818C24.0337 33.8013 24.0342 33.6208 24.035 33.4403C24.0354 33.3136 24.0351 33.1869 24.0348 33.0602C24.0461 31.9377 24.3965 30.998 25.1875 30.1875C25.7292 29.7065 26.3472 29.3306 27.0625 29.1875C27.0625 28.3625 27.0625 27.5375 27.0625 26.6875C26.7009 26.616 26.7009 26.616 26.332 26.543C25.8297 26.4436 25.3302 26.3413 24.8347 26.2114C24.6677 26.1843 24.5936 26.1849 24.4375 26.25C24.321 26.3992 24.321 26.3992 24.218 26.5911C24.1875 26.6442 24.1875 26.6442 24.1564 26.6983C24.1123 26.7752 24.0686 26.8522 24.0252 26.9294C23.9327 27.094 23.8385 27.2576 23.7444 27.4212C23.6954 27.5064 23.6464 27.5917 23.5976 27.6769C23.342 28.1225 23.0762 28.5616 22.8086 29C22.7663 29.0695 22.724 29.139 22.6804 29.2106C22.5989 29.3443 22.5173 29.4779 22.4354 29.6114C22.349 29.7528 22.2631 29.8945 22.1777 30.0366C22.1333 30.11 22.0889 30.1834 22.0444 30.2568C22.0049 30.3226 21.9654 30.3883 21.9247 30.456C21.7437 30.7287 21.565 30.895 21.25 31C20.9583 31.0339 20.7451 31.0294 20.4805 30.8945C20.2141 30.6654 20.033 30.4013 19.8567 30.0994C19.8178 30.0332 19.7789 29.967 19.7389 29.8988C19.6974 29.8278 19.656 29.7568 19.6133 29.6836C19.524 29.5316 19.4345 29.3797 19.345 29.2278C19.3219 29.1887 19.2989 29.1496 19.2752 29.1093C19.0204 28.6775 18.7606 28.2487 18.5 27.8203C18.4574 27.7503 18.4149 27.6803 18.371 27.6081C18.0823 27.1336 17.7915 26.6603 17.5 26.1875C17.4369 26.2002 17.4369 26.2002 17.3724 26.2132C17.1754 26.2529 16.9783 26.2925 16.7812 26.332C16.7151 26.3454 16.649 26.3587 16.5808 26.3724C16.0338 26.4822 15.486 26.5847 14.9375 26.6875C14.9375 28.1931 14.9375 29.6988 14.9375 31.25C15.0819 31.2913 15.2262 31.3325 15.375 31.375C16.1346 31.806 16.6041 32.4279 16.875 33.25C17.0691 34.0103 16.9744 34.8644 16.5911 35.5466C16.485 35.7061 16.3727 35.8531 16.25 36C16.2127 36.045 16.1754 36.0901 16.137 36.1365C15.6701 36.6499 14.9822 36.9853 14.2864 37.021C13.2578 37.0406 12.5281 36.8134 11.7617 36.1016C11.1682 35.4773 10.9663 34.6512 10.9827 33.812C11.0127 33.1933 11.2508 32.6711 11.625 32.1875C11.6701 32.123 11.7152 32.0586 11.7617 31.9922C12.0819 31.62 12.5449 31.4017 13 31.25C13 29.8888 13 28.5275 13 27.125C11.414 27.552 10.1267 27.9364 9.29099 29.3552C9.05733 29.8233 8.90972 30.3284 8.74609 30.8242C8.70366 30.9508 8.66116 31.0773 8.61859 31.2038C8.40104 31.8519 8.18698 32.5012 7.97294 33.1504C7.85434 33.5101 7.73543 33.8697 7.61638 34.2293C7.52874 34.4941 7.44169 34.7592 7.35511 35.0245C7.30053 35.1913 7.24548 35.358 7.19033 35.5246C7.15246 35.6395 7.11517 35.7546 7.07789 35.8697C6.81322 36.6663 6.81322 36.6663 6.47632 36.928C6.17948 37.0585 5.87985 37.0387 5.5625 37C5.27268 36.8627 5.14602 36.7176 5 36.4375C4.83183 35.7221 5.21907 34.9271 5.44507 34.2615C5.49144 34.1225 5.53773 33.9835 5.58395 33.8444C5.68093 33.5535 5.77867 33.2629 5.877 32.9725C6.00182 32.6036 6.12499 32.2343 6.2476 31.8648C6.34307 31.5775 6.43929 31.2905 6.53574 31.0036C6.58136 30.8677 6.62678 30.7318 6.67199 30.5958C6.8923 29.9345 7.12233 29.2848 7.41945 28.6536C7.44168 28.6063 7.46392 28.5591 7.48683 28.5104C8.15431 27.1431 9.4047 26.1503 10.8125 25.625C11.024 25.5601 11.2376 25.507 11.4526 25.4553C11.5478 25.432 11.5478 25.432 11.6448 25.4082C12.5397 25.1916 13.439 24.9934 14.338 24.7945C14.5969 24.7372 14.8558 24.6795 15.1146 24.6217C15.3158 24.5769 15.5171 24.5322 15.7183 24.4876C15.8139 24.4664 15.9095 24.4451 16.0051 24.4237C16.1374 24.3942 16.2696 24.365 16.4019 24.3358C16.4769 24.3192 16.5519 24.3026 16.6292 24.2854C16.8125 24.25 16.8125 24.25 17 24.25C17 23.4663 17 22.6825 17 21.875C16.8969 21.8338 16.7938 21.7925 16.6875 21.75C16.2101 21.4442 15.7865 21.0755 15.375 20.6875C15.3334 20.65 15.2919 20.6124 15.249 20.5737C13.9147 19.3208 13.1312 17.4333 13 15.625C12.9894 15.2524 12.9881 14.8798 12.9873 14.5071C12.987 14.4267 12.987 14.4267 12.9868 14.3448C12.9858 14.0613 12.9853 13.7779 12.985 13.4944C12.9846 13.2041 12.9831 12.9138 12.9814 12.6235C12.9802 12.398 12.9799 12.1725 12.9798 11.947C12.9796 11.8401 12.9791 11.7332 12.9783 11.6263C12.9661 9.93793 13.5111 8.70255 14.6875 7.5C14.7396 7.44601 14.7396 7.44601 14.7927 7.39093C16.211 5.94047 18.3364 4.9997 20.3726 4.9873ZM15.9414 8.97266C15.3341 9.60589 14.9275 10.2877 14.9314 11.177C14.9316 11.2578 14.9318 11.3385 14.932 11.4218C14.9325 11.5064 14.9331 11.5911 14.9336 11.6758C14.9339 11.7617 14.9342 11.8476 14.9344 11.9335C14.9352 12.1432 14.9362 12.3528 14.9375 12.5625C15.2883 12.2698 15.6072 11.958 15.9219 11.6272C16.2242 11.3175 16.5063 11.0551 16.96 11.0325C17.2799 11.048 17.5397 11.162 17.8281 11.293C18.2795 11.4859 18.7247 11.6353 19.2031 11.7461C19.2566 11.7585 19.3102 11.7709 19.3653 11.7837C21.1453 12.178 22.9859 11.8997 24.62 11.1124C24.8505 11.0239 25.0712 11.0187 25.3125 11.0625C25.9109 11.3554 26.402 11.958 26.8655 12.4319C26.9762 12.5698 26.9762 12.5698 27.0625 12.5625C27.0672 12.3158 27.0706 12.0692 27.0728 11.8224C27.0742 11.698 27.0766 11.5736 27.079 11.4492C27.087 10.3885 26.7277 9.6899 25.9988 8.93457C24.6881 7.61748 22.9413 6.91143 21.0887 6.8743C19.1228 6.88342 17.3572 7.61458 15.9414 8.97266ZM17.1875 13.125C17.1624 13.1511 17.1372 13.1772 17.1114 13.2041C16.4429 13.8952 15.8372 14.4413 14.9375 14.8125C14.8631 16.2666 15.3758 17.7036 16.3125 18.8125C16.3729 18.8866 16.3729 18.8866 16.4346 18.9622C17.4714 20.1814 18.9534 20.9153 20.5447 21.0488C22.2134 21.1522 23.7386 20.6075 25.0149 19.5315C26.1571 18.4959 26.9061 17.1088 27.0625 15.5625C27.0711 15.312 27.0705 15.063 27.0625 14.8125C26.9997 14.7851 26.937 14.7577 26.8723 14.7295C26.2227 14.4331 25.7467 14.0706 25.25 13.5625C25.1694 13.4818 25.0888 13.4011 25.0081 13.3206C24.9429 13.2554 24.8777 13.1902 24.8125 13.125C24.755 13.1434 24.755 13.1434 24.6964 13.1622C22.1334 13.9776 19.7417 13.9989 17.1875 13.125ZM18.9375 22.6875C18.7482 24.2702 19.0664 25.23 19.97 26.5248C20.1969 26.851 20.3997 27.1914 20.6055 27.5313C20.7156 27.7087 20.8264 27.8857 20.9375 28.0625C21.1879 27.979 21.2152 27.8751 21.345 27.6479C21.3659 27.6117 21.3869 27.5755 21.4085 27.5383C21.5013 27.3778 21.5925 27.2164 21.6838 27.0551C21.7555 26.9287 21.8273 26.8024 21.8994 26.6763C21.9234 26.6342 21.9475 26.5921 21.9722 26.5488C22.1193 26.2948 22.277 26.0559 22.4521 25.8198C23.1876 24.8055 23.163 23.8925 23.0625 22.6875C22.9981 22.7003 22.9338 22.7131 22.8674 22.7263C21.5379 22.9821 20.2656 22.9769 18.9375 22.6875ZM13.1641 33.4063C12.9641 33.65 12.9152 33.862 12.9199 34.1797C12.9591 34.476 13.1221 34.6828 13.3281 34.8945C13.5941 35.0578 13.8289 35.1476 14.144 35.106C14.5112 35.0058 14.734 34.8197 14.9375 34.5C15.0403 34.1916 15.0369 33.921 14.9336 33.6172C14.7505 33.3455 14.5572 33.1204 14.2368 33.0186C13.791 32.9486 13.4657 33.0681 13.1641 33.4063Z" fill="white"/>
</g>
<defs>
<clipPath id="clip0_1_2">
<rect width="32" height="32" fill="white" transform="translate(5 5)"/>
</clipPath>
</defs>
</svg>
